<svg width="100" height="64" viewBox="0 0 100 64" fill="none" xmlns="http://www.w3.org/2000/svg">
<path d="M24.971 2.09316C25.8806 1.30301 27.045 0.867916 28.2499 0.867916L60.7653 0.867916C69.0496 0.867916 75.7653 7.58364 75.7653 15.8679V31.6541C75.7653 39.9384 69.0496 46.6541 60.7653 46.6541H4.99999C2.23857 46.6541 0 44.4156 0 41.6541V30.6231C0 26.2788 1.88351 22.1478 5.16329 19.2989L24.971 2.09316Z" fill="#AAA9AD"/>
<path d="M100 46.6541V26.3468C100 24.6963 99.3201 23.1187 98.1204 21.9853L77.5208 2.52461C76.407 1.47234 74.9327 0.886097 73.4004 0.886097H44.4067C41.0929 0.886097 38.4067 3.57238 38.4067 6.88609V40.6541C38.4067 43.9678 41.0929 46.6541 44.4066 46.6541H100Z" fill="#AAA9AD"/>
<circle cx="20.1191" cy="50.0779" r="13.0542" fill="black"/>
<circle cx="74.3539" cy="50.0779" r="13.0542" fill="black"/>
<path d="M26.9047 4.43701L4.36503 24.9105H94.8993L71.4205 4.43701H26.9047Z" fill="#16E2E2" stroke="#16E2E2"/>
<path d="M27.3151 4.41308V24.9437H4.29484L26.7934 4.48961L26.8834 4.41308H27.3151Z" stroke="black"/>
<path d="M27.2289 4.40642H60.8914V24.9295H27.2289V4.40642Z" stroke="black"/>
<path d="M60.8984 4.38999L71.4995 4.38998L94.9764 24.8886H60.8984V4.38999Z" stroke="black"/>
</svg>
