<svg width="100" height="100" viewBox="0 0 100 100" fill="none" xmlns="http://www.w3.org/2000/svg">
<g filter="url(#filter0_d)">
<path d="M64.9786 38.0993L50 50H100L83.1416 37.7195C77.6904 33.7485 70.2591 33.9038 64.9786 38.0993Z" fill="#FFFF00"/>
<path d="M61.9007 64.9786L50 50L50 100L62.2805 83.1416C66.2516 77.6904 66.0962 70.2591 61.9007 64.9786Z" fill="#00FF00"/>
<path d="M35.0214 61.9007L50 50L-3.8147e-06 50L16.8584 62.2805C22.3096 66.2516 29.7409 66.0962 35.0214 61.9007Z" fill="#0000FF"/>
<path d="M38.0993 35.0214L50 50V-3.8147e-06L37.7195 16.8584C33.7485 22.3096 33.9038 29.7409 38.0993 35.0214Z" fill="#FF0000"/>
<circle cx="50" cy="50" r="5" fill="black"/>
</g>
<defs>
<filter id="filter0_d" x="-2" y="-2" width="112" height="112" filterUnits="userSpaceOnUse" color-interpolation-filters="sRGB">
<feFlood flood-opacity="0" result="BackgroundImageFix"/>
<feColorMatrix in="SourceAlpha" type="matrix" values="0 0 0 0 0 0 0 0 0 0 0 0 0 0 0 0 0 0 127 0"/>
<feOffset dx="4" dy="4"/>
<feGaussianBlur stdDeviation="3"/>
<feColorMatrix type="matrix" values="0 0 0 0 0 0 0 0 0 0 0 0 0 0 0 0 0 0 0.25 0"/>
<feBlend mode="normal" in2="BackgroundImageFix" result="effect1_dropShadow"/>
<feBlend mode="normal" in="SourceGraphic" in2="effect1_dropShadow" result="shape"/>
</filter>
</defs>
</svg>
